<svg xmlns="http://www.w3.org/2000/svg" fill="none" viewBox="0 0 242 256"><g clip-path="url(#angular_svg_a)"><mask id="angular_svg_b" width="242" height="256" x="0" y="0" maskUnits="userSpaceOnUse" style="mask-type:luminance"><path fill="#fff" d="M0 0h242v256H0z"/></mask><g mask="url(#angular_svg_b)"><path fill="url(#angular_svg_c)" d="m241 43-9 136L149 0zm-58 176-62 36-63-36 12-31h101zM121 68l32 80H88zM9 179 0 43 92 0z"/><path fill="url(#angular_svg_d)" d="m241 43-9 136L149 0zm-58 176-62 36-63-36 12-31h101zM121 68l32 80H88zM9 179 0 43 92 0z"/></g></g><defs><linearGradient id="angular_svg_c" x1="53.2" x2="245" y1="231.9" y2="140.7" gradientUnits="userSpaceOnUse"><stop stop-color="#e40035"/><stop offset=".2" stop-color="#f60a48"/><stop offset=".4" stop-color="#f20755"/><stop offset=".5" stop-color="#dc087d"/><stop offset=".7" stop-color="#9717e7"/><stop offset="1" stop-color="#6c00f5"/></linearGradient><linearGradient id="angular_svg_d" x1="44.5" x2="170" y1="30.7" y2="174" gradientUnits="userSpaceOnUse"><stop stop-color="#ff31d9"/><stop offset="1" stop-color="#ff5be1" stop-opacity="0"/></linearGradient><clipPath id="angular_svg_a"><path fill="#fff" d="M0 0h242v256H0z"/></clipPath></defs></svg>