<svg xmlns="http://www.w3.org/2000/svg" xmlns:xlink="http://www.w3.org/1999/xlink" viewBox="0 0 152.01 132"><defs><linearGradient id="chrome-extension_svg_a" x1="39.16" x2="152.84" y1="775.015" y2="775.015" gradientTransform="translate(0 -650)" gradientUnits="userSpaceOnUse"><stop offset="0" style="stop-color:#d93025"/><stop offset="1" style="stop-color:#ea4335"/></linearGradient><linearGradient id="chrome-extension_svg_b" x1="-1169.827" x2="-1056.123" y1="59.741" y2="59.741" gradientTransform="rotate(240 -489.633 -231.997)" gradientUnits="userSpaceOnUse"><stop offset="0" style="stop-color:#1e8e3e"/><stop offset="1" style="stop-color:#34a853"/></linearGradient><linearGradient id="chrome-extension_svg_c" x1="56.707" x2="170.407" y1="-664.775" y2="-664.775" gradientTransform="rotate(120 -125.505 -249.003)" gradientUnits="userSpaceOnUse"><stop offset="0" style="stop-color:#fbbc04"/><stop offset="1" style="stop-color:#fcc934"/></linearGradient><linearGradient xlink:href="#chrome-extension_svg_a" id="chrome-extension_svg_d" x1="39.16" x2="152.84" y1="775.015" y2="775.015" gradientTransform="translate(-20 -678)" gradientUnits="userSpaceOnUse"/><linearGradient xlink:href="#chrome-extension_svg_b" id="chrome-extension_svg_e" x1="-1169.827" x2="-1056.123" y1="59.741" y2="59.741" gradientTransform="rotate(240 -507.715 -240.224)" gradientUnits="userSpaceOnUse"/><linearGradient xlink:href="#chrome-extension_svg_c" id="chrome-extension_svg_f" x1="56.707" x2="170.407" y1="-664.775" y2="-664.775" gradientTransform="rotate(120 -127.422 -268.777)" gradientUnits="userSpaceOnUse"/></defs><path fill="#f1f3f4" d="M0 0v121.63C0 127.35 4.64 132 10.37 132h131.27c5.72 0 10.37-4.64 10.37-10.37L152 0Zm58.73 14.52h34.54c3.82 0 6.91 3.09 6.91 6.91 0 3.81-3.09 6.91-6.91 6.91H58.73c-3.82 0-6.91-3.09-6.91-6.91s3.09-6.91 6.91-6.91"/><path fill="#f1f3f4" d="M0 0v121.63C0 127.35 4.64 132 10.37 132h131.27c5.72 0 10.37-4.64 10.37-10.37L152 0Zm58.73 14.52h34.54c3.82 0 6.91 3.09 6.91 6.91 0 3.81-3.09 6.91-6.91 6.91H58.73c-3.82 0-6.91-3.09-6.91-6.91s3.09-6.91 6.91-6.91"/><path fill="#e8eaed" d="M0 0v66.35h152V0Zm58.73 14.52h34.54c3.82 0 6.91 3.09 6.91 6.91 0 3.81-3.09 6.91-6.91 6.91H58.73c-3.82 0-6.91-3.09-6.91-6.91s3.09-6.91 6.91-6.91"/><path d="M76 55.99c-24.29 0-45.49 13.19-56.84 32.81l9.05 27.61L42.18 132h8.894L76 88.81l56.84-.01C121.49 69.18 100.29 55.99 76 55.99" style="fill:url(#chrome-extension_svg_d)"/><path d="M19.16 88.8c-7.466 12.967-10.36 28.254-7.974 43.2h32.908z" style="fill:url(#chrome-extension_svg_e)"/><path d="M76 88.81 100.934 132h39.88c2.387-14.943-.508-30.225-7.974-43.19z" style="fill:url(#chrome-extension_svg_f)"/><path d="M76 88.81c-18.12 0-32.81 14.695-32.81 32.82 0 3.626.598 7.11 1.683 10.37h62.254a32.8 32.8 0 0 0 1.684-10.37c0-18.125-14.69-32.82-32.811-32.82" style="fill:#f1f3f4"/><path fill="#1a73e8" d="M76 94.96a26.66 26.67 0 0 0-26.66 26.67A26.66 26.67 0 0 0 51.486 132h49.028a26.66 26.67 0 0 0 2.146-10.37A26.66 26.67 0 0 0 76 94.96"/><path fill="#bdc1c6" d="M0 66.35h152v.86H0zm0-.87h152v.86H0z" opacity=".1"/></svg>