<svg xmlns="http://www.w3.org/2000/svg" xml:space="preserve" viewBox="0 0 500 500"><path fill="#40c4ff" d="M85.53 85.53v266.45c0 26.39 3.31 32.86 16.45 46.05L203.95 500h207.24v-88.82z"/><path fill="#29b6f6" d="M85.53 351.97c0 26.39 3.31 32.86 16.45 46.05l13.16 13.16h296.05L85.53 85.53z"/><path fill="#01579b" d="M85.53 85.53 6.58 250C3.76 255.98 0 266.38 0 273.03c0 14.36 6.32 29.06 16.45 39.47l85.53 85.53c-13.14-13.19-16.45-19.67-16.45-46.05z"/><path fill="#55c5f8" d="M105.26 401.32c-13.14-13.19-16.45-19.67-16.45-46.05V88.82l-3.29-3.29v266.45c0 26.39 3.31 32.86 16.45 46.05l13.16 13.16z"/><path fill="#01579b" d="M348.68 85.53H85.53l325.66 325.66H500V207.24L394.74 101.97c-14.79-14.84-27.92-16.44-46.06-16.44"/><path fill="#40c4ff" d="m394.74 101.97-85.53-85.53C301.74 8.95 286.18 0 273.03 0c-11.31 0-22.41 2.26-29.6 6.58L85.53 85.53h263.16c18.13 0 31.26 1.6 46.05 16.44"/><path fill="#075087" d="M496.71 203.95v203.94h-88.82l3.29 3.29H500V207.24z"/><path fill="#3379ae" d="M394.74 101.97c-16.31-16.31-29.68-16.45-49.34-16.45H85.53l3.29 3.29H345.4c9.82.01 34.59-1.64 49.34 13.16"/></svg>