<svg xmlns="http://www.w3.org/2000/svg" xmlns:xlink="http://www.w3.org/1999/xlink" viewBox="100 60 298 308"><defs><circle id="sidekiq_svg_a" cx="149.238" cy="149.238" r="149.238"/></defs><g fill="none"><use xlink:href="#sidekiq_svg_a" fill="#b1003e" transform="translate(100.305 60)"/><g fill="#fff"><path d="M190.209 138.351q-17.83.898-23.255 7.058-5.426 6.159-.832 17.25 3.2 5.294 5.545 7.748 2.346 2.454 7.207 5.253l-4.262 2.43-2.945 8.986-7.171 13.102-11.923 29.336-2.304 7.01q2.33 13.683 4.093 15.244 1.764 1.563 6.46 1.284 4.71 5.258 6.132 3.752c.377-.4.973-.974.699-2.91-.124-.868-1.335-2.55-1.242-3.678.09-1.086 1.107-2.296 1.444-4.642q.216-1.513 0-5.833l18.893-19.343 10.867 2.293 14.362 2.55 3.618.977q13.725-25.953 15.535-30.16 1.811-4.206 2.209-8.982l-4.671-4.294q16.77-6.443 19.057-9.41c2.287-2.965 6.415-11.917 6.415-15.306q0-3.388 1.003-23.516-9.808 1.23-11.448 0c-1.638-1.23-3.178-6.142-3.178-10.273q0-4.13-2.551-11.15l-4.627-1.274q-1.047-5.162-2.209-5.162t-2.462 2.463q-1.476 5.651-1.476 7.028c0 1.377-.987 5.283 1.476 8.095q2.462 2.813 5.79 10.273-2.075 7.625 0 9.704c2.073 2.08 0 4.825 0 6.415q0 1.591-1.12 7.397-19.078 3.303-21.85 2.2t-8.782 2.393l-5.091 4.883q1.314-5.646 0-8.289c-1.315-2.642-2.046-4.309-2.046-6.71 0-.994-1.38-3.283-1.38-4.937q0-1.01.56-3.352l-3.626-3.431q1.278-.06 1.437-.72.158-.66-2.351-1.752m54.446 55.064q-6.11 17.86-8.836 23.467t-9.751 15.332q5.807 6.627 5.807 9.112c0 2.485-.429 16.566-1.777 23.162q-1.347 6.596-2.74 66.134 0 10.327-2.072 12.777c-2.074 2.45-4.481 9.045-4.481 10.84 0 1.793-7.264 8.188-7.264 8.188s2.023 3.753 3.775 3.753 9.549-4.89 12.782-8.964 5.532-3.664 7.413-5.394c1.88-1.73 5.289-6.388 3.585-8.423q-1.704-2.036-1.704-8.858 3.87-2.29 5.872-2.29c2.002 0 .373-7.146 2.975-14.65q2.601-7.506 12.382-78.175 6-17.657 8.124-19.356t16.949-14.382q23.542-14.567 26.259-16.926c2.716-2.359 29.277-9.914 32.908-14.726q3.632-4.812 15.425-11.142V159.9q7.438-2.554 9.748-2.554c2.31 0 5.4 1.416 7.05-2.2 1.648-3.614.57-7.64 2.874-9.535s6.121-5.23 7.286-7.21 3.65-3.39 2.407-4.997-7.803-.827-8.748.69c-.945 1.518-5.915 4.266-9.33 7.3q-3.414 3.034-14.289 7.437-6.834-6.12-8.987-5.11c-2.153 1.009-17.843 9.226-25.157 11.426s-32.597 19.919-39.243 21.564-12.246 3.541-15.152 5.735c-2.906 2.193-6.536 1.304-10.653 1.749-2.077.224-5.417 3.768-11.492 5.397q-1.167 1.118-1.945 3.822"/><path d="M215.06 227.173c-.588 2.9-.239 5.981 0 7.645 1.286 8.971-7.444 11.259-7.444 11.259l4.603 3.969c9.253-1.69 9.253-13.47 9.253-13.47-.435-1.632-.865-6.964-.642-8.438.02.021 5.42-6.376 10.074-16.277 2.39-5.084 4.65-11.45 6.192-15.644 1.49-4.055 1.776-6.667 1.547-7.402 0 .251-2.778-.922-5.409-1.627-.09 1.629-.94 4.696-2.16 7.8-1.24 3.154-3.646 6.822-5.644 10.933-4.72 9.716-10.624 20.69-10.37 21.252"/></g></g></svg>